<?xml version="1.0" standalone="no"?>
<!DOCTYPE svg PUBLIC "-//W3C//DTD SVG 20010904//EN"
 "http://www.w3.org/TR/2001/REC-SVG-20010904/DTD/svg10.dtd">
<svg version="1.0" xmlns="http://www.w3.org/2000/svg"
 width="512.000000pt" height="512.000000pt" viewBox="0 0 512.000000 512.000000"
 preserveAspectRatio="xMidYMid meet">

<g transform="translate(0.000000,512.000000) scale(0.100000,-0.100000)"
fill="#000000" stroke="none">
<path d="M2385 5114 c-514 -54 -944 -260 -1296 -620 -609 -626 -751 -1577
-350 -2356 204 -398 528 -712 934 -909 l125 -60 126 -172 126 -172 -27 -7
c-16 -3 -89 -18 -163 -32 -305 -57 -505 -157 -561 -280 -66 -146 48 -282 316
-379 277 -99 795 -148 1230 -117 628 46 996 203 995 425 -1 160 -244 297 -644
365 -66 11 -121 22 -122 23 -2 2 53 80 122 175 l126 171 117 56 c612 294 1030
850 1140 1515 94 572 -59 1159 -419 1609 -84 105 -251 270 -345 342 -273 209
-591 346 -935 404 -92 15 -412 28 -495 19z m407 -179 c439 -58 812 -245 1119
-561 151 -157 250 -299 345 -499 339 -714 190 -1568 -371 -2130 -241 -240
-543 -411 -867 -490 -175 -43 -177 -43 -194 -76 -12 -25 -13 -37 -4 -65 6 -19
20 -39 30 -44 24 -13 85 -13 133 1 21 6 43 9 48 7 16 -5 -375 -532 -406 -546
-33 -15 -97 -15 -130 0 -31 14 -422 541 -406 546 5 2 27 -1 48 -7 48 -14 109
-14 133 -1 10 5 24 25 30 44 9 28 8 40 -4 65 -17 33 -26 36 -191 76 -541 132
-989 497 -1236 1008 -222 460 -246 979 -67 1467 185 507 609 925 1128 1110
116 42 300 86 412 99 120 14 329 12 450 -4z m-542 -4381 c120 -169 178 -208
310 -208 132 0 190 39 310 208 l75 106 65 -6 c298 -27 631 -137 655 -215 24
-73 -260 -187 -580 -233 -612 -87 -1390 -1 -1604 179 -38 33 -39 48 -3 82 63
60 251 126 462 162 248 43 221 50 310 -75z"/>
<path d="M2380 4770 c-219 -27 -396 -80 -585 -175 -691 -347 -1063 -1116 -905
-1872 123 -590 566 -1086 1135 -1271 195 -64 287 -77 540 -77 200 1 243 4 332
23 518 113 941 434 1178 893 429 835 109 1850 -725 2293 -156 83 -329 140
-520 172 -107 19 -352 26 -450 14z m328 -170 c471 -50 875 -294 1134 -685 339
-513 336 -1179 -9 -1700 -81 -122 -271 -316 -392 -400 -163 -113 -357 -197
-566 -246 -116 -26 -395 -37 -516 -20 -504 72 -929 373 -1163 822 -192 367
-223 802 -86 1203 225 664 903 1099 1598 1026z"/>
<path d="M2070 4261 c-51 -11 -113 -45 -151 -83 -18 -19 -64 -98 -106 -184
l-74 -151 -59 -6 c-127 -11 -247 -100 -290 -214 -20 -54 -21 -69 -18 -652 l3
-596 24 -45 c37 -70 61 -98 115 -135 98 -66 75 -65 1046 -65 971 0 948 -1
1046 65 54 37 78 65 115 135 l24 45 0 610 0 610 -23 46 c-36 73 -87 125 -156
159 l-64 32 -4 81 c-5 98 -27 147 -92 204 -56 49 -101 63 -206 63 -105 0 -150
-14 -206 -63 -63 -56 -86 -106 -92 -199 l-5 -78 -57 0 -57 0 -64 137 c-79 169
-119 222 -196 259 -57 28 -62 29 -238 31 -99 1 -196 -2 -215 -6z m392 -185
c18 -12 46 -56 78 -123 27 -57 50 -106 50 -109 0 -2 -29 -4 -65 -4 -75 0 -108
-13 -124 -47 -18 -38 -13 -68 15 -97 l27 -26 501 0 c467 0 504 -2 542 -19 48
-22 83 -66 91 -116 l6 -35 -1023 0 -1023 0 6 35 c8 50 43 94 91 116 36 16 68
19 244 19 202 0 203 0 227 25 34 33 34 87 0 120 -21 22 -33 25 -100 25 -41 0
-75 2 -75 5 0 15 101 203 117 217 36 33 67 38 228 35 137 -2 164 -5 187 -21z
m839 -95 c25 -26 29 -37 29 -85 l0 -56 -130 0 -130 0 0 56 c0 48 4 59 29 85
27 27 35 29 101 29 66 0 74 -2 101 -29z m-1411 -696 c-78 -113 -112 -250 -93
-367 15 -86 48 -170 89 -223 l34 -45 -190 0 -190 0 0 340 0 340 190 0 191 0
-31 -45z m555 11 c216 -99 265 -389 93 -552 -66 -64 -119 -87 -216 -92 -63 -3
-94 0 -130 13 -112 42 -188 127 -218 244 -69 271 216 504 471 387z m1135 -306
l0 -340 -446 0 -445 0 25 33 c124 162 132 425 18 583 -16 22 -31 45 -36 52 -6
9 85 12 438 12 l446 0 0 -340z m0 -540 c0 -53 -63 -122 -128 -140 -53 -14
-1733 -14 -1787 1 -63 17 -125 86 -125 139 l0 20 1020 0 1020 0 0 -20z"/>
<path d="M3290 3147 c-39 -20 -50 -53 -50 -160 0 -136 17 -167 95 -167 24 0
39 7 54 26 19 24 21 40 21 143 -1 121 -6 137 -47 159 -27 15 -42 15 -73 -1z"/>
</g>
</svg>
