<?xml version="1.0" standalone="no"?>
<!DOCTYPE svg PUBLIC "-//W3C//DTD SVG 20010904//EN"
 "http://www.w3.org/TR/2001/REC-SVG-20010904/DTD/svg10.dtd">
<svg version="1.0" xmlns="http://www.w3.org/2000/svg"
 width="512.000000pt" height="512.000000pt" viewBox="0 0 512.000000 512.000000"
 preserveAspectRatio="xMidYMid meet">

<g transform="translate(0.000000,512.000000) scale(0.100000,-0.100000)"
fill="#000000" stroke="none">
<path d="M2328 4946 c-427 -55 -820 -247 -1124 -550 -358 -357 -564 -853 -564
-1357 0 -615 336 -1319 966 -2025 300 -336 879 -854 954 -854 57 0 435 322
737 627 629 635 1024 1282 1143 1872 42 212 50 393 25 601 -94 793 -662 1443
-1430 1639 -213 55 -498 73 -707 47z m417 -156 c526 -59 989 -340 1283 -781
227 -340 330 -779 277 -1181 -100 -757 -675 -1589 -1687 -2442 l-57 -48 -58
48 c-457 383 -804 741 -1084 1116 -462 620 -668 1202 -609 1723 70 606 425
1117 965 1388 299 150 646 213 970 177z"/>
<path d="M2415 4554 c-405 -58 -664 -182 -926 -443 -230 -231 -366 -487 -425
-806 -26 -138 -26 -392 0 -530 59 -319 194 -574 425 -806 231 -230 487 -366
806 -425 138 -26 392 -26 530 0 319 59 575 195 806 425 230 231 366 487 425
806 25 135 26 402 1 530 -64 328 -212 603 -443 826 -222 214 -478 346 -784
404 -81 16 -352 28 -415 19z m420 -182 c543 -118 953 -536 1062 -1082 25 -122
24 -384 -1 -505 -101 -487 -432 -869 -892 -1028 -163 -56 -257 -71 -444 -71
-115 0 -191 5 -250 17 -554 110 -976 532 -1087 1085 -24 120 -24 384 0 504
115 572 557 999 1134 1093 119 19 357 13 478 -13z"/>
<path d="M1705 3895 l-25 -24 0 -352 c0 -247 4 -364 12 -393 13 -45 105 -146
132 -146 14 0 16 -35 16 -306 0 -212 4 -319 12 -348 26 -86 136 -166 228 -166
92 0 202 80 228 166 8 29 12 136 12 348 0 271 2 306 16 306 27 0 119 101 132
146 8 29 12 146 12 393 l0 352 -25 24 c-15 16 -36 25 -55 25 -19 0 -40 -9 -55
-25 -25 -24 -25 -24 -25 -240 l0 -215 -80 0 -80 0 0 215 c0 216 0 216 -25 240
-15 16 -36 25 -55 25 -19 0 -40 -9 -55 -25 -25 -24 -25 -24 -25 -240 l0 -215
-80 0 -80 0 0 215 c0 216 0 216 -25 240 -15 16 -36 25 -55 25 -19 0 -40 -9
-55 -25z m615 -670 c0 -67 -29 -105 -80 -105 -19 0 -40 -9 -55 -25 l-25 -24 0
-351 0 -351 -25 -24 c-32 -33 -78 -33 -110 0 l-25 24 0 351 0 351 -25 24 c-15
16 -36 25 -55 25 -51 0 -80 38 -80 105 l0 55 240 0 240 0 0 -55z"/>
<path d="M2957 3910 c-141 -36 -267 -180 -302 -347 -37 -172 -2 -327 104 -461
l41 -51 0 -342 c0 -239 4 -354 12 -383 26 -86 136 -166 228 -166 92 0 202 80
228 166 8 29 12 144 12 383 l0 342 41 51 c106 134 141 289 104 461 -29 137
-129 273 -239 323 -62 28 -168 39 -229 24z m158 -169 c23 -10 59 -39 82 -65
57 -65 78 -129 78 -241 0 -109 -25 -172 -104 -259 l-51 -56 0 -376 0 -375 -25
-24 c-32 -33 -78 -33 -110 0 l-25 24 0 375 0 376 -51 56 c-79 87 -104 150
-104 259 0 112 21 176 78 241 70 80 151 102 232 65z"/>
</g>
</svg>
